<?xml version="1.0" encoding="utf-8"?>
<!-- Generator: Adobe Illustrator 21.1.0, SVG Export Plug-In . SVG Version: 6.00 Build 0)  -->
<svg version="1.1" id="GOT_x5F_play" xmlns="http://www.w3.org/2000/svg" xmlns:xlink="http://www.w3.org/1999/xlink" x="0px"
	 y="0px" viewBox="0 0 200 200" style="enable-background:new 0 0 200 200;" xml:space="preserve">
<style type="text/css">
	.st0{fill:#FFFFFF;}
	.st1{fill:none;stroke:#FFFFFF;stroke-width:7;stroke-miterlimit:10;}
</style>
<path id="sword2" class="st0" d="M117.9,141.7c0,0,0.2,2.4,4.7,9.1c0,0,1.8-1.1,0.3,1.7c0,0-2.7-0.3-1.3-1.1c0,0-2.7-6.6-6.3-9.4
	l-15.1,8.4c0,0-1.7,0.3-2.9,2.4c0,0-0.8,1.7-2.7-0.3c0,0-0.6-2.1,1-2.5c0,0,2.4-0.2,3.5-1.5l14.5-9.3c0,0-0.3-3.6-5.3-10
	c0,0-1.4,0.8-0.3-1.7c0,0,2.4-0.2,1.7,0.8c0,0,1.8,5.2,5.2,8.8l56.6-33.2c0,0,9.2-5.5,11.2-4.2c0,0,0.6,2.1-8.6,7.6L117.9,141.7z"/>
<path id="sword1" class="st0" d="M113.6,64.7c0,0-2,1.4-5.4,8.7c0,0,1.9,1-1.3,1.2c0,0-1.1-2.4,0.3-1.7c0,0,4.3-5.7,5-10.2
	l-14.8-8.7c0,0-1.2-1.3-3.6-1.3c0,0-2,0.1-1.1-2.4c0,0,1.5-1.6,2.7-0.3c0,0,1.4,2,3.1,2.3l15.3,7.8c0,0,2.9-2,5.9-9.6
	c0,0-1.4-0.8,1.3-1.2c0,0,1.4,2,0.1,2c0,0-3.6,4.2-4.9,8.9L173.4,92c0,0,9.4,5.2,9.3,7.5c0,0-1.5,1.6-11-3.6L113.6,64.7z"/>
<path id="sword2_1_" class="st0" d="M57.9,141.7c0,0,0.2,2.4,4.7,9.1c0,0,1.8-1.1,0.3,1.7c0,0-2.7-0.3-1.3-1.1c0,0-2.7-6.6-6.3-9.4
	l-15.1,8.4c0,0-1.7,0.3-2.9,2.4c0,0-0.8,1.7-2.7-0.3c0,0-0.6-2.1,1-2.5c0,0,2.4-0.2,3.5-1.5l14.5-9.3c0,0-0.3-3.6-5.3-10
	c0,0-1.4,0.8-0.3-1.7c0,0,2.4-0.2,1.7,0.8c0,0,1.8,5.2,5.2,8.8l56.6-33.2c0,0,9.2-5.5,11.2-4.2c0,0,0.6,2.1-8.6,7.6L57.9,141.7z"/>
<path id="sword1_1_" class="st0" d="M53.6,64.7c0,0-2,1.4-5.4,8.7c0,0,1.9,1-1.3,1.2c0,0-1.1-2.4,0.3-1.7c0,0,4.3-5.7,5-10.2
	l-14.8-8.7c0,0-1.2-1.3-3.6-1.3c0,0-2,0.1-1.1-2.4c0,0,1.5-1.6,2.7-0.3c0,0,1.4,2,3.1,2.3l15.3,7.8c0,0,2.9-2,5.9-9.6
	c0,0-1.4-0.8,1.3-1.2c0,0,1.4,2,0.1,2c0,0-3.6,4.2-4.9,8.9L113.4,92c0,0,9.4,5.2,9.3,7.5c0,0-1.5,1.6-11-3.6L53.6,64.7z"/>
<circle id="circle" class="st1" cx="100.8" cy="100.8" r="95.3"/>
</svg>
