<svg id="matchstick_brand" xmlns="http://www.w3.org/2000/svg" viewBox="0 0 500 500">
  <defs>
    <style>
      .cls-1 {
        fill: #3e3f3f;
      }

      .cls-2 {
        fill: #fac952;
      }

      .cls-3 {
        fill: #ff8503;
      }
    </style>
  </defs>
  <title>matchstick_logo</title>
  <g id="logo_option_3_final">
    <g id="match">
      <path id="stick" class="cls-1" d="M143,242.19h37.15a0,0,0,0,1,0,0V486a5,5,0,0,1-5,5H148a5,5,0,0,1-5-5V242.19a0,0,0,0,1,0,0Z" transform="translate(302.5 -8.45) rotate(44.38)"/>
      <path id="tip" class="cls-2" d="M322.47,202.23s-25.35-24.81-45.83-2.71c-18.71,20.2-41.3,65.17-41.3,65.17l13.28,13,13.27,13s45-23,64.27-42.69C347.23,226.46,322.47,202.23,322.47,202.23Z"/>
    </g>
    <path id="flame" class="cls-3" d="M387.64,145.18c-13.15-16.6-13.93-32-13.47-38.71.08-1.1-1.57-1.65-2.44-.81L340,136.27S297.12,80.1,295.82,21a1.44,1.44,0,0,0-2.36-.83c-49.92,41.13-94.76,99.44-94.76,99.44S155,172.36,154,228.48c0,25.09,9.37,48.31,25.21,67.47l38.42-39.26c12.89-23.27,33.24-57.56,51.31-77.07,31.89-34.42,71.37,4.22,71.37,4.22s38.57,37.74,5.76,71.26c-17.4,17.77-48.22,37.24-71.09,50.49l-32.16,32.86c182.8,21.17,193.75-78.12,193.75-110C435.11,184,402.69,164.18,387.64,145.18Z"/>
  </g>
</svg>
