<?xml version="1.0" encoding="utf-8"?>
<!-- Generator: Adobe Illustrator 23.0.6, SVG Export Plug-In . SVG Version: 6.00 Build 0)  -->
<svg version="1.1" id="matchstick_x5F_logo_x5F_ideas"
	 xmlns="http://www.w3.org/2000/svg" xmlns:xlink="http://www.w3.org/1999/xlink" x="0px" y="0px" viewBox="0 0 500 500"
	 style="enable-background:new 0 0 500 500;" xml:space="preserve">
<style type="text/css">
	.st0{fill:#FF8503;}
	.st1{fill:#FEB204;}
	.st2{fill:#3E3F3F;}
	.st3{fill:#F17D30;}
	.st4{fill:#FAC952;}
	.st5{fill:#EF7303;}
</style>
<g id="logo_x5F_option_x5F_3_1_">
	<g id="match_1_">
		<path id="stick_2_" class="st2" d="M84.3,464.99L64.9,446c-1.97-1.93-2.01-5.1-0.08-7.07l170.52-174.25l26.55,25.98L91.37,464.91
			C89.44,466.89,86.27,466.92,84.3,464.99z"/>
		<path id="tip_1_" class="st4" d="M322.47,202.23c0,0-25.35-24.81-45.83-2.7c-18.71,20.2-41.3,65.17-41.3,65.17l13.28,13
			l13.27,12.98c0,0,45.01-23.01,64.27-42.68C347.23,226.46,322.47,202.23,322.47,202.23z"/>
	</g>
	<path id="flame_1_" class="st5" d="M387.64,145.18c-13.15-16.6-13.93-31.96-13.47-38.71c0.07-1.1-1.57-1.65-2.44-0.82l-31.75,30.61
		c0,0-42.85-56.17-44.15-115.31c-0.02-1.03-1.49-1.54-2.36-0.83c-49.92,41.13-94.76,99.43-94.76,99.43s-43.67,52.79-44.66,108.92
		c0,25.09,9.36,48.31,25.21,67.46l38.42-39.26c12.88-23.27,33.24-57.56,51.31-77.06c31.89-34.42,71.37,4.21,71.37,4.21
		s38.57,37.75,5.75,71.26c-17.4,17.77-48.22,37.24-71.09,50.49l-32.16,32.86c182.8,21.17,193.75-78.12,193.75-109.97
		C435.11,184.04,402.69,164.18,387.64,145.18z"/>
</g>
</svg>
