<?xml version="1.0" encoding="utf-8"?>
<!-- Generator: Adobe Illustrator 21.1.0, SVG Export Plug-In . SVG Version: 6.00 Build 0)  -->
<svg version="1.1" id="GOT_x5F_play" xmlns="http://www.w3.org/2000/svg" xmlns:xlink="http://www.w3.org/1999/xlink" x="0px"
	 y="0px" viewBox="0 0 200 200" style="enable-background:new 0 0 200 200;" xml:space="preserve">
<style type="text/css">
	.st0{fill:#FFFFFF;}
	.st1{fill:none;stroke:#FFFFFF;stroke-width:7;stroke-miterlimit:10;}
	.st2{fill:none;stroke:#FFFFFF;stroke-width:6;stroke-miterlimit:10;}
</style>
<path id="sword1_1_" class="st0" d="M70.1,135.5c0,0,1.3,4,11.6,13.7c0,0,2.8-2.6,1.3,2.7c0,0-4.7,0.5-2.6-1.4
	c0,0-7.1-10.3-14.3-13.8l-22.6,19.9c0,0-2.7,1.3-4.1,5.2c0,0-0.8,3.3-4.7,0.5c0,0-1.8-3.4,0.9-4.6c0,0,4-1.3,5.5-3.9l21.4-21.4
	c0,0-1.8-6-12.9-15c0,0-2,1.9-1.3-2.7c0,0,4-1.3,3.3,0.8c0,0,5.1,8.2,12.2,13l84.4-78.3c0,0,13.7-12.9,17.7-11.5
	c0,0,1.8,3.4-11.9,16.3L70.1,135.5z"/>
<circle id="circle" class="st1" cx="100.8" cy="100.8" r="95.3"/>
<rect id="speakerBack" x="63" y="77" class="st2" width="27" height="51.5"/>
<polygon id="speakerFront" class="st2" points="132,150.5 90,128.5 90,77 130.5,51 "/>
</svg>
