<?xml version="1.0" encoding="utf-8"?>
<!-- Generator: Adobe Illustrator 21.1.0, SVG Export Plug-In . SVG Version: 6.00 Build 0)  -->
<svg version="1.1" id="GOT_x5F_play" xmlns="http://www.w3.org/2000/svg" xmlns:xlink="http://www.w3.org/1999/xlink" x="0px"
	 y="0px" viewBox="0 0 200 200" style="enable-background:new 0 0 200 200;" xml:space="preserve">
<style type="text/css">
	.st0{fill:#FFFFFF;}
	.st1{fill:none;stroke:#FFFFFF;stroke-width:7;stroke-miterlimit:10;}
</style>
<path id="sword2" class="st0" d="M132.1,147.1c0,0,3.1,1.6,14.6,0.9c0,0,0-3.1,2.3,0.8c0,0-2.3,3.1-2.3,0.8c0,0-10-1.6-16.2,0.7
	l-0.9,24.7c0,0-0.8,2.3,0.7,5.4c0,0,1.5,2.3-2.3,3.1c0,0-3.1-0.8-2.3-3.1c0,0,1.6-3.1,0.8-5.4l-0.6-24.7c0,0-4.6-2.3-16.2-0.9
	c0,0,0,2.3-2.3-0.8c0,0,1.6-3.1,2.3-1.5c0,0,7.7,1.6,14.6,0.1l1.3-94c0,0,0.1-15.4,3.2-16.9c0,0,3.1,0.8,3,16.2L132.1,147.1z"/>
<path id="sword1" class="st0" d="M76.8,146.8c0,0,3.1,1.5,14.6,0.7c0,0,0-3.1,2.3,0.8c0,0-2.3,3.1-2.3,0.8c0,0-10-1.5-16.2,0.8
	l-0.7,24.7c0,0-0.8,2.3,0.8,5.4c0,0,1.6,2.3-2.3,3.1c0,0-3.1-0.8-2.3-3.1c0,0,1.5-3.1,0.7-5.4l-0.9-24.7c0,0-4.6-2.3-16.2-0.7
	c0,0,0,2.3-2.3-0.8c0,0,1.5-3.1,2.3-1.6c0,0,7.7,1.5,14.6-0.1l0.4-94c0,0-0.1-15.4,3-17c0,0,3.1,0.8,3.1,16.2L76.8,146.8z"/>
<circle id="circle" class="st1" cx="100.8" cy="100.8" r="95.3"/>
</svg>
