<?xml version="1.0" encoding="utf-8"?>
<!-- Generator: Adobe Illustrator 21.1.0, SVG Export Plug-In . SVG Version: 6.00 Build 0)  -->
<svg version="1.1" id="GOT_x5F_play" xmlns="http://www.w3.org/2000/svg" xmlns:xlink="http://www.w3.org/1999/xlink" x="0px"
	 y="0px" viewBox="0 0 200 200" style="enable-background:new 0 0 200 200;" xml:space="preserve">
<style type="text/css">
	.st0{fill:#FFFFFF;}
	.st1{fill:none;stroke:#FFFFFF;stroke-width:7;stroke-miterlimit:10;}
</style>
<path id="sword2" class="st0" d="M89.3,159.2c0,0,0.3,3.4,6.8,13c0,0,2.6-1.6,0.5,2.4c0,0-3.8-0.4-1.8-1.6c0,0-3.8-9.4-9-13.5
	l-21.6,12c0,0-2.4,0.5-4.2,3.4c0,0-1.2,2.5-3.8-0.4c0,0-0.9-3,1.5-3.6c0,0,3.4-0.3,5-2.1l20.8-13.3c0,0-0.4-5.2-7.6-14.3
	c0,0-2,1.2-0.5-2.4c0,0,3.4-0.3,2.5,1.2c0,0,2.6,7.4,7.5,12.6l81.1-47.6c0,0,13.2-7.9,16.1-6c0,0,0.9,3-12.3,10.9L89.3,159.2z"/>
<path id="sword1" class="st0" d="M83.1,48.9c0,0-2.8,2-7.7,12.5c0,0,2.7,1.5-1.8,1.7c0,0-1.6-3.5,0.4-2.4c0,0,6.2-8.1,7.1-14.6
	L59.9,33.6c0,0-1.7-1.8-5.1-1.9c0,0-2.8,0.2-1.6-3.5c0,0,2.2-2.3,3.8-0.5c0,0,2,2.8,4.4,3.3l22,11.2c0,0,4.2-2.9,8.4-13.8
	c0,0-2-1.1,1.8-1.7c0,0,2,2.8,0.2,2.8c0,0-5.1,6-7,12.8L168.9,88c0,0,13.5,7.4,13.4,10.8c0,0-2.2,2.3-15.7-5.1L83.1,48.9z"/>
<circle id="circle" class="st1" cx="100.8" cy="100.8" r="95.3"/>
</svg>
